<svg xmlns="http://www.w3.org/2000/svg" viewBox="0 0 48 48" width="48px" height="48px"><path fill="#8c9eff" d="M42,45.478c0,0.416-0.479,0.65-0.807,0.395L33,38.999l0.781,2.343 C33.889,41.666,33.648,42,33.306,42H10c-2.761,0-5-2.239-5-5V11c0-2.761,2.239-5,5-5h27c2.761,0,5,2.239,5,5V45.478z"/><path fill="#fff" d="M32.627,17.295c-0.027-0.041-0.05-0.066-0.089-0.095c-0.383-0.282-2.803-1.99-5.627-2.2l-0.27,0.55 c2.78,0.67,4.05,1.64,5.38,2.83C29.73,17.21,27.46,16,23.5,16s-6.23,1.21-8.52,2.38c1.33-1.19,2.85-2.27,5.38-2.83L20.09,15 c-2.957,0.284-5.261,1.926-5.629,2.201c-0.038,0.029-0.061,0.053-0.087,0.093c-0.333,0.509-2.866,4.607-3.362,12.145 c-0.007,0.113,0.032,0.232,0.109,0.316c2.555,2.804,6.16,3.185,7.06,3.237c0.134,0.008,0.256-0.053,0.336-0.161l0.794-1.061 c-1.57-0.54-3.36-1.51-4.9-3.27c1.84,1.38,4.61,2.5,9.09,2.5s7.25-1.12,9.09-2.5c-1.54,1.76-3.33,2.73-4.9,3.27l0.794,1.061 c0.08,0.107,0.202,0.168,0.336,0.161c0.9-0.052,4.505-0.434,7.06-3.237c0.076-0.084,0.116-0.203,0.109-0.316 C35.493,21.907,32.962,17.808,32.627,17.295z M20,28c-1.1,0-2-1.12-2-2.5s0.9-2.5,2-2.5s2,1.12,2,2.5S21.1,28,20,28z M27,28 c-1.1,0-2-1.12-2-2.5s0.9-2.5,2-2.5s2,1.12,2,2.5S28.1,28,27,28z"/><path d="M26.91,15c2.824,0.211,5.244,1.918,5.627,2.2c0.039,0.029,0.063,0.054,0.089,0.095 c0.335,0.513,2.866,4.612,3.362,12.144c0.007,0.113-0.032,0.232-0.109,0.316c-2.555,2.804-6.16,3.185-7.06,3.237 c-0.008,0-0.015,0.001-0.023,0.001c-0.125,0-0.238-0.06-0.313-0.161L27.69,31.77c1.57-0.54,3.36-1.51,4.9-3.27 c-1.84,1.38-4.61,2.5-9.09,2.5s-7.25-1.12-9.09-2.5c1.54,1.76,3.33,2.73,4.9,3.27l-0.794,1.061 c-0.076,0.101-0.189,0.161-0.313,0.161c-0.008,0-0.015,0-0.023-0.001c-0.9-0.052-4.505-0.434-7.06-3.237 c-0.076-0.084-0.116-0.203-0.109-0.316c0.496-7.538,3.03-11.636,3.362-12.145c0.026-0.04,0.049-0.064,0.087-0.093 c0.368-0.275,2.671-1.917,5.629-2.201l0.27,0.55c-2.53,0.56-4.05,1.64-5.38,2.83C17.27,17.21,19.54,16,23.5,16s6.23,1.21,8.52,2.38 c-1.33-1.19-2.6-2.16-5.38-2.83L26.91,15 M27,28c1.1,0,2-1.12,2-2.5c0-1.38-0.9-2.5-2-2.5s-2,1.12-2,2.5C25,26.88,25.9,28,27,28 M20,28c1.1,0,2-1.12,2-2.5c0-1.38-0.9-2.5-2-2.5s-2,1.12-2,2.5C18,26.88,18.9,28,20,28 M20.386,14.469l-0.344,0.033 c-3.066,0.294-5.436,1.966-5.88,2.298c-0.085,0.063-0.148,0.131-0.206,0.22c-0.299,0.457-2.936,4.691-3.443,12.386 c-0.017,0.251,0.07,0.501,0.238,0.685c2.653,2.912,6.335,3.338,7.401,3.4l0.014,0.001l0.037,0.001c0.282,0,0.542-0.132,0.714-0.362 l0.794-1.061l0.411-0.549l-0.649-0.223c-0.285-0.098-0.563-0.206-0.835-0.323c1.445,0.352,3.06,0.526,4.863,0.526 s3.418-0.174,4.863-0.526c-0.272,0.118-0.55,0.225-0.835,0.323l-0.649,0.223l0.411,0.549l0.794,1.061 c0.172,0.23,0.432,0.362,0.714,0.362h0.014l0.037-0.001c1.065-0.061,4.748-0.488,7.401-3.4c0.168-0.184,0.255-0.434,0.238-0.685 c-0.506-7.692-3.143-11.927-3.442-12.384c-0.059-0.09-0.124-0.159-0.211-0.223c-0.468-0.345-2.951-2.077-5.887-2.297l-0.337-0.025 l-0.149,0.303l-0.27,0.55l-0.17,0.347C25.256,15.564,24.422,15.5,23.5,15.5s-1.756,0.064-2.521,0.177l-0.17-0.347l-0.27-0.55 L20.386,14.469L20.386,14.469z M27,27.5c-0.813,0-1.5-0.916-1.5-2s0.687-2,1.5-2s1.5,0.916,1.5,2S27.813,27.5,27,27.5L27,27.5z M20,27.5c-0.813,0-1.5-0.916-1.5-2s0.687-2,1.5-2s1.5,0.916,1.5,2S20.813,27.5,20,27.5L20,27.5z" opacity=".07"/><path d="M26.91,15c2.824,0.211,5.244,1.918,5.627,2.2c0.039,0.029,0.063,0.054,0.089,0.095 c0.335,0.513,2.866,4.612,3.362,12.144c0.007,0.113-0.032,0.232-0.109,0.316c-2.555,2.804-6.16,3.185-7.06,3.237 c-0.008,0-0.015,0.001-0.023,0.001c-0.125,0-0.238-0.06-0.313-0.161L27.69,31.77c1.57-0.54,3.36-1.51,4.9-3.27 c-1.84,1.38-4.61,2.5-9.09,2.5s-7.25-1.12-9.09-2.5c1.54,1.76,3.33,2.73,4.9,3.27l-0.794,1.061 c-0.076,0.101-0.189,0.161-0.313,0.161c-0.008,0-0.015,0-0.023-0.001c-0.9-0.052-4.505-0.434-7.06-3.237 c-0.076-0.084-0.116-0.203-0.109-0.316c0.496-7.538,3.03-11.636,3.362-12.145c0.026-0.04,0.049-0.064,0.087-0.093 c0.368-0.275,2.671-1.917,5.629-2.201l0.27,0.55c-2.53,0.56-4.05,1.64-5.38,2.83C17.27,17.21,19.54,16,23.5,16s6.23,1.21,8.52,2.38 c-1.33-1.19-2.6-2.16-5.38-2.83L26.91,15 M27,28c1.1,0,2-1.12,2-2.5c0-1.38-0.9-2.5-2-2.5s-2,1.12-2,2.5C25,26.88,25.9,28,27,28 M20,28c1.1,0,2-1.12,2-2.5c0-1.38-0.9-2.5-2-2.5s-2,1.12-2,2.5C18,26.88,18.9,28,20,28 M20.683,13.938l-0.688,0.066 c-3.199,0.307-5.669,2.049-6.132,2.396c-0.132,0.099-0.235,0.209-0.325,0.347c-0.5,0.765-3.019,4.966-3.523,12.627 c-0.025,0.386,0.108,0.771,0.367,1.055c2.78,3.051,6.628,3.498,7.742,3.562l0.029,0.002l0.051,0.001 c0.441,0,0.847-0.205,1.114-0.562l0.794-1.061l0.408-0.545C21.453,31.942,22.446,32,23.5,32s2.047-0.058,2.981-0.176l0.408,0.545 l0.794,1.061c0.267,0.357,0.673,0.562,1.114,0.562h0.029l0.052-0.002c1.113-0.064,4.961-0.511,7.741-3.562 c0.259-0.284,0.393-0.669,0.367-1.055c-0.504-7.657-3.023-11.86-3.522-12.625c-0.092-0.141-0.198-0.253-0.333-0.352 c-0.487-0.359-3.073-2.163-6.146-2.393l-0.674-0.05l-0.298,0.607l-0.27,0.55l-0.011,0.022C25.045,15.047,24.306,15,23.5,15 s-1.545,0.047-2.231,0.132l-0.011-0.022l-0.27-0.55L20.683,13.938L20.683,13.938z M27,27c-0.473,0-1-0.616-1-1.5s0.527-1.5,1-1.5 s1,0.616,1,1.5S27.473,27,27,27L27,27z M20,27c-0.473,0-1-0.616-1-1.5s0.527-1.5,1-1.5s1,0.616,1,1.5S20.473,27,20,27L20,27z" opacity=".05"/></svg>